<svg width="665" height="664" xmlns="http://www.w3.org/2000/svg" xmlns:xlink="http://www.w3.org/1999/xlink" overflow="hidden"><defs><clipPath id="clip0"><rect x="366" y="1076" width="665" height="664"/></clipPath></defs><g clip-path="url(#clip0)" transform="translate(-366 -1076)"><path d="M374 1408C374 1228.51 519.507 1083 699 1083 878.493 1083 1024 1228.51 1024 1408 1024 1587.49 878.493 1733 699 1733 519.507 1733 374 1587.49 374 1408Z" fill="#FFC000" fill-rule="evenodd"/><path d="M374.012 1405.18C375.561 1226.79 520.609 1083 699 1083L699 1408Z" stroke="#2F528F" stroke-width="13.75" stroke-miterlimit="8" fill="#4472C4" fill-rule="evenodd"/><path d="M928.578 1178.37 469.237 1637.71M469.237 1178.37 928.578 1637.71" stroke="#203864" stroke-width="13.75" stroke-miterlimit="8" fill="none" fill-rule="evenodd"/><path d="M469.237 1178.37C596.081 1051.53 801.735 1051.53 928.578 1178.37 1055.42 1305.22 1055.42 1510.87 928.578 1637.71 801.735 1764.56 596.081 1764.56 469.237 1637.71 342.394 1510.87 342.394 1305.22 469.237 1178.37Z" stroke="#203864" stroke-width="13.75" stroke-miterlimit="8" fill="none" fill-rule="evenodd"/><path d="M699 1083 699 1733M374 1408 1024 1408" stroke="#203864" stroke-width="13.75" stroke-miterlimit="8" fill="none" fill-rule="evenodd"/><path d="M374 1408C374 1228.51 519.507 1083 699 1083 878.493 1083 1024 1228.51 1024 1408 1024 1587.49 878.493 1733 699 1733 519.507 1733 374 1587.49 374 1408Z" stroke="#203864" stroke-width="13.75" stroke-miterlimit="8" fill="none" fill-rule="evenodd"/></g></svg>